M48
;DRILL file {Pcbnew (2013-07-07 BZR 4022)-stable} date 06/12/2014 14:16:48
;FORMAT={-:-/ absolute / metric / decimal}
FMAT,2
METRIC,TZ
T1C0.400
T2C0.800
T3C0.900
T4C1.000
T5C1.001
T6C3.200
T7C3.500
%
G90
G05
M71
T1
X109.926Y-87.992
X111.5Y-61.
X112.Y-67.
X112.Y-72.75
X113.5Y-64.
X113.5Y-87.5
X113.75Y-83.
X114.45Y-45.95
X114.45Y-52.75
X114.913Y-70.219
X114.95Y-96.05
X115.5Y-56.75
X116.25Y-80.
X116.327Y-60.532
X117.25Y-64.5
X117.85Y-45.95
X117.85Y-49.35
X117.85Y-52.75
X118.35Y-92.65
X118.35Y-96.05
X119.429Y-72.572
X119.75Y-79.75
X119.764Y-58.333
X120.03Y-75.81
X120.75Y-56.25
X121.25Y-45.95
X121.25Y-49.35
X121.25Y-52.75
X121.574Y-70.99
X121.75Y-92.65
X121.75Y-96.05
X122.898Y-63.592
X123.Y-59.5
X123.5Y-79.25
X123.8Y-55.3
X123.824Y-64.422
X123.942Y-56.962
X123.945Y-61.454
X124.07Y-67.883
X124.238Y-58.255
X124.25Y-72.
X124.52Y-65.4
X124.65Y-45.95
X124.65Y-49.35
X124.65Y-52.75
X124.896Y-76.966
X124.994Y-60.751
X125.09Y-70.403
X125.15Y-96.05
X126.166Y-67.702
X126.357Y-55.216
X126.906Y-69.401
X127.036Y-81.153
X127.401Y-54.36
X128.05Y-45.95
X128.05Y-49.35
X128.05Y-52.75
X128.55Y-92.65
X128.55Y-96.05
X129.25Y-79.25
X129.643Y-57.784
X129.75Y-70.75
X130.079Y-76.961
X130.661Y-67.007
X131.45Y-45.95
X131.45Y-49.35
X131.45Y-52.75
X131.5Y-56.5
X131.742Y-81.207
X131.923Y-63.468
X131.95Y-92.65
X131.95Y-96.05
X132.25Y-74.75
X132.75Y-58.75
X134.5Y-79.75
X134.95Y-45.95
X135.25Y-56.5
X135.25Y-60.
X135.35Y-92.65
X135.35Y-96.05
X136.123Y-78.243
X136.25Y-75.75
X136.522Y-70.992
X137.Y-81.164
X138.35Y-45.95
X138.547Y-76.866
X138.691Y-73.486
X138.75Y-96.05
X139.25Y-56.5
X139.25Y-60.
X140.034Y-70.075
X140.483Y-79.641
X141.Y-62.75
X141.75Y-45.95
X142.15Y-92.65
X142.15Y-96.05
X142.25Y-71.5
X142.75Y-79.25
X143.Y-56.5
X143.Y-60.
X145.15Y-45.95
X145.25Y-71.75
X145.387Y-61.415
X145.476Y-79.233
X145.55Y-92.65
X145.55Y-96.05
X146.079Y-76.961
X146.25Y-64.5
X147.695Y-62.177
X147.752Y-81.207
X148.5Y-55.75
X148.55Y-45.95
X148.95Y-96.05
X150.976Y-79.233
X151.079Y-76.96
X151.413Y-64.625
X151.95Y-45.95
X152.35Y-92.65
X152.35Y-96.05
X153.248Y-81.207
X154.395Y-65.239
X154.484Y-79.177
X154.536Y-77.239
X154.641Y-82.082
X155.35Y-45.95
X155.75Y-73.75
X155.75Y-92.65
X155.75Y-96.05
X156.25Y-61.
X156.5Y-67.5
X157.75Y-55.5
X158.029Y-77.995
X158.5Y-72.5
X158.617Y-76.841
X158.75Y-45.95
X159.15Y-96.05
X159.25Y-68.5
X159.75Y-86.25
X159.75Y-89.75
X159.956Y-63.638
X160.438Y-58.089
X160.5Y-61.
X160.75Y-82.
X162.15Y-45.95
X162.55Y-92.65
X162.55Y-96.05
X162.75Y-56.
X162.75Y-89.75
X165.55Y-45.95
X165.95Y-92.65
X165.95Y-96.05
X166.Y-89.75
X166.25Y-56.
X168.95Y-45.95
X169.35Y-92.65
X169.35Y-96.05
X169.5Y-52.65
X169.5Y-56.05
X169.5Y-59.45
X169.5Y-62.85
X169.5Y-66.25
X169.5Y-69.65
X169.5Y-73.05
X169.5Y-76.45
X169.5Y-79.85
X169.5Y-83.25
X169.5Y-86.65
X169.5Y-90.05
X172.9Y-52.65
X172.9Y-56.05
X172.9Y-62.85
X172.9Y-66.25
X172.9Y-73.05
X172.9Y-79.85
X172.9Y-83.25
X172.9Y-86.65
X176.05Y-52.65
X176.05Y-56.05
X176.05Y-59.45
X176.05Y-62.85
X176.05Y-66.25
X176.05Y-69.65
X176.05Y-73.05
X176.05Y-76.45
X176.05Y-79.85
X176.05Y-83.25
X176.05Y-86.65
X176.05Y-90.05
T2
X118.923Y-89.944
X138.875Y-89.943
X163.599Y-58.739
T3
X109.25Y-54.94
X109.25Y-57.48
X109.25Y-60.02
X109.25Y-62.56
X109.25Y-66.96
X109.25Y-69.5
X109.25Y-72.04
X109.25Y-77.19
X109.25Y-79.73
X109.25Y-82.27
X109.25Y-84.81
X150.21Y-70.5
X152.75Y-70.5
X155.29Y-70.5
T4
X115.75Y-93.
X126.5Y-93.
X137.25Y-93.
X148.Y-93.
X158.75Y-93.
X173.Y-58.75
X173.Y-70.25
X173.Y-76.75
X173.Y-88.25
T5
X142.96Y-52.42
X144.345Y-49.58
X145.729Y-52.42
X147.116Y-49.58
X148.5Y-52.42
X149.884Y-49.58
X151.271Y-52.42
X152.655Y-49.58
X154.04Y-52.42
T6
X136.001Y-51.
X160.999Y-51.
T7
X111.Y-49.
X111.Y-93.
X173.Y-49.
X173.Y-93.
T0
M30
